<svg width="30" height="40" viewBox="0 0 30 40" fill="none" xmlns="http://www.w3.org/2000/svg">
<path d="M30 9.52664V10H20V0H20.4734C20.9706 2.59997e-06 21.4475 0.197533 21.7991 0.549141L29.4508 8.20078C29.8024 8.55242 30 9.02935 30 9.52664ZM19.375 12.5C18.3438 12.5 17.5 11.6562 17.5 10.625V0H1.875C0.839453 0 0 0.839453 0 1.875V38.125C0 39.1605 0.839453 40 1.875 40H28.125C29.1605 40 30 39.1605 30 38.125V12.5H19.375ZM8.79258 13.75C10.8637 13.75 12.5426 15.4289 12.5426 17.5C12.5426 19.5711 10.8637 21.25 8.79258 21.25C6.72148 21.25 5.04258 19.5711 5.04258 17.5C5.04258 15.4289 6.72156 13.75 8.79258 13.75ZM25.0426 32.5H5.04258L5.08047 28.7121L8.16758 25.625C8.53367 25.2589 9.08937 25.2968 9.45547 25.6629L12.5426 28.75L20.6297 20.6629C20.9958 20.2968 21.5894 20.2968 21.9555 20.6629L25.0426 23.75V32.5Z" fill="#003C8F"/>
</svg>
