<svg width="509" height="470" viewBox="0 0 509 470" fill="none" xmlns="http://www.w3.org/2000/svg">
<g filter="url(#filter0_f_346_283)">
<path fill-rule="evenodd" clip-rule="evenodd" d="M265.271 10.4073C326.916 12.9217 392.722 4.63598 437.127 51.1348C488.126 104.538 513.548 182.756 502.418 258.735C490.36 341.044 448.633 421.52 378.066 454.298C310.141 485.847 237.554 447.35 170.919 412.709C104.003 377.922 29.8747 340.863 10.3562 263.138C-9.84847 182.681 19.7095 92.6518 76.4248 36.4223C125.726 -12.4566 198.559 7.68621 265.271 10.4073Z" fill="#C8E2FF" fill-opacity="0.75"/>
</g>
<path d="M151.086 207.503H108.994V263.267H151.086V207.503Z" fill="#CCCCCC"/>
<path d="M87.5654 347.14H66.1367L63.8408 325.378H89.8613L87.5654 347.14Z" fill="white"/>
<path d="M130.595 331.377L129.872 343.09C129.839 343.62 129.902 344.153 130.057 344.652C130.213 345.15 130.456 345.604 130.771 345.982C131.086 346.361 131.466 346.655 131.885 346.845C132.304 347.035 132.753 347.116 133.201 347.084L138.279 346.72C138.514 346.703 138.743 346.625 138.95 346.491C139.157 346.357 139.336 346.171 139.476 345.946C139.615 345.721 139.711 345.462 139.756 345.188C139.802 344.914 139.796 344.631 139.738 344.36L136.92 331.003L130.595 331.377Z" fill="white"/>
<path d="M173.068 338.304C179.044 339.96 183.313 342.314 186.118 345.501C187.116 346.627 188.423 347.29 189.8 347.371C191.559 347.481 192.997 347.247 194.078 346.675H194.078C194.355 346.53 194.594 346.301 194.771 346.01C194.947 345.719 195.055 345.377 195.082 345.02C195.115 344.657 195.065 344.291 194.938 343.959C194.811 343.626 194.612 343.341 194.36 343.131L180.186 331.182L174.166 334.036L172.762 335.7C172.61 335.88 172.495 336.1 172.427 336.341C172.358 336.583 172.338 336.84 172.368 337.092C172.397 337.344 172.476 337.585 172.598 337.795C172.719 338.006 172.88 338.18 173.068 338.304H173.068Z" fill="white"/>
<path d="M154.677 147.066L114.164 146.622C114.266 139.631 115.639 132.766 118.64 126.622C120.611 122.588 120.568 118.197 120.093 114.497C119.36 108.788 121.065 102.947 124.852 99.3134C127.747 96.5313 131.4 95.0993 135.124 95.2869L135.91 95.3257C138.473 95.4519 140.967 96.3387 143.165 97.9048C145.363 99.4709 147.193 101.666 148.489 104.289C149.805 107.088 150.336 110.312 150.004 113.492C149.748 116.485 150.362 119.508 151.799 122.561C154.279 129.263 154.816 137.839 154.677 147.066Z" fill="#2F2E41"/>
<path d="M181.782 331.806L173.831 334.263L135.112 234.325L137.532 331.806H129.581C121.085 285.943 105.745 233.014 112.642 216.303L153.78 213.436L181.782 331.806Z" fill="#1565C0"/>
<path d="M134.766 130.29C140.685 130.29 145.483 124.606 145.483 117.593C145.483 110.581 140.685 104.896 134.766 104.896C128.848 104.896 124.05 110.581 124.05 117.593C124.05 124.606 128.848 130.29 134.766 130.29Z" fill="#FFB9B9"/>
<path d="M144.1 140.94L126.47 139.711C128.198 135.012 128.888 130.488 128.198 126.195H141.335C141.305 129.491 142.69 135.193 144.1 140.94Z" fill="#FFB9B9"/>
<path d="M155.162 217.122L116.444 220.399L120.42 139.096L127.161 136.844L134.766 138.892L142.371 134.386L147.211 136.434L155.162 217.122Z" fill="#1565C0"/>
<path d="M123.012 275.693L96.5664 268.525C104.43 237.629 118.597 166.947 114.024 141.759L127.852 134.386L123.012 275.693Z" fill="white"/>
<path d="M110.222 186.403L100.196 179.031L108.746 149.363C109.7 146.301 111.526 143.731 113.91 142.096L116.79 140.12L115.061 170.02L110.222 186.403Z" fill="white"/>
<path d="M178.152 268.934C169.805 274.656 148.941 277.845 139.779 273.849C139.105 245.934 137.783 166.973 142.027 133.567L157.237 140.939L155.855 163.057C148.583 181.977 169.699 247.877 178.152 268.934Z" fill="white"/>
<path d="M176.942 182.717L167.608 179.031L155.163 162.238L157.237 140.939L177.979 175.345L176.942 182.717Z" fill="white"/>
<path d="M147.69 198.659C147.843 199.453 148.255 200.143 148.836 200.578C149.418 201.012 150.121 201.156 150.791 200.977L158.715 198.851L157.57 192.859L149.646 194.985C148.976 195.165 148.393 195.653 148.026 196.342C147.659 197.031 147.538 197.865 147.69 198.659V198.659Z" fill="#FFB9B9"/>
<path d="M144.1 114.316C138.148 111.416 132.269 111.207 126.47 113.907L124.05 103.667H146.175L144.1 114.316Z" fill="#2F2E41"/>
<path d="M154.817 191.728L159.311 201.558C166.87 199.06 173.422 191.185 179.708 181.898L177.979 175.344L167.263 178.621L154.817 191.728Z" fill="white"/>
<path d="M151.533 171.454H150.15C150.15 148.282 146.123 132.133 142.199 132.133L141.854 130.495C145.373 130.495 147.616 137.216 148.879 142.854C150.591 150.498 151.533 160.654 151.533 171.454Z" fill="#3F3D56"/>
<path d="M119.729 165.719H118.346C118.346 144.497 122.4 131.314 128.371 131.314L128.025 132.953C123.895 132.953 119.729 143.084 119.729 165.719Z" fill="#3F3D56"/>
<path d="M150.842 175.959C152.751 175.959 154.299 174.125 154.299 171.863C154.299 169.601 152.751 167.767 150.842 167.767C148.933 167.767 147.385 169.601 147.385 171.863C147.385 174.125 148.933 175.959 150.842 175.959Z" fill="#3F3D56"/>
<path d="M114.197 175.549H112.814C112.814 169.677 115.606 164.9 119.037 164.9V166.538C116.368 166.538 114.197 170.581 114.197 175.549Z" fill="#3F3D56"/>
<path d="M125.26 175.549H123.877C123.877 170.581 121.706 166.538 119.037 166.538V164.9C122.468 164.9 125.26 169.677 125.26 175.549Z" fill="#3F3D56"/>
<path d="M124.568 177.597C125.332 177.597 125.951 176.864 125.951 175.959C125.951 175.054 125.332 174.321 124.568 174.321C123.805 174.321 123.186 175.054 123.186 175.959C123.186 176.864 123.805 177.597 124.568 177.597Z" fill="#3F3D56"/>
<path d="M113.506 177.597C114.27 177.597 114.889 176.864 114.889 175.959C114.889 175.054 114.27 174.321 113.506 174.321C112.742 174.321 112.123 175.054 112.123 175.959C112.123 176.864 112.742 177.597 113.506 177.597Z" fill="#3F3D56"/>
<path d="M96.2207 160.893L104.848 162.719L124.568 195.94L114.092 193.019L96.2207 160.893Z" fill="#1565C0"/>
<path d="M94.6905 160.487C94.5591 160.489 94.4305 160.533 94.3184 160.614C94.2063 160.696 94.1147 160.811 94.0531 160.949C93.9916 161.087 93.9624 161.241 93.9686 161.397C93.9748 161.553 94.0162 161.703 94.0884 161.834L112.521 194.969C112.624 195.154 112.783 195.286 112.965 195.337L121.542 197.727C121.686 197.768 121.838 197.755 121.976 197.691C122.115 197.627 122.233 197.514 122.316 197.369C122.4 197.223 122.443 197.05 122.442 196.874C122.441 196.698 122.394 196.527 122.309 196.383L102.07 162.289C102.016 162.196 101.946 162.117 101.865 162.056C101.784 161.995 101.694 161.954 101.6 161.934L94.8288 160.501C94.7832 160.492 94.7369 160.487 94.6905 160.487V160.487Z" fill="#3F3D56"/>
<path d="M106.189 184.178L106.702 190.292L114.786 189.341C115.47 189.261 116.099 188.862 116.535 188.232C116.971 187.601 117.178 186.792 117.11 185.981C117.042 185.17 116.705 184.425 116.173 183.908C115.641 183.392 114.958 183.147 114.274 183.228L106.189 184.178Z" fill="#FFB9B9"/>
<path d="M99.1592 183.47C99.1709 185.555 99.8776 187.549 101.125 189.019C102.373 190.489 104.06 191.316 105.82 191.318H107.149L108.117 181.763L100.104 178.345L99.1592 183.47Z" fill="white"/>
<path d="M60.6342 317.328C66.152 326.083 77.6057 327.004 77.6057 327.004C77.6057 327.004 80.1135 313.731 74.5957 304.976C69.078 296.221 57.6242 295.3 57.6242 295.3C57.6242 295.3 55.1165 308.573 60.6342 317.328Z" fill="white"/>
<path d="M88.7421 320.619C85.1011 326.396 77.5431 327.004 77.5431 327.004C77.5431 327.004 75.8884 318.246 79.5294 312.469C83.1704 306.692 90.7284 306.083 90.7284 306.083C90.7284 306.083 92.3831 314.842 88.7421 320.619Z" fill="white"/>
<path d="M249.811 346.984H51V348H249.811V346.984Z" fill="#3F3D56"/>
<path d="M223 186.38H379V88H223V186.38Z" fill="white"/>
<path d="M273.056 102.774H257.75V105.495H273.056V102.774Z" fill="black"/>
<path d="M239.25 105.745H291.556V167.809H239.25V105.745Z" stroke="black" stroke-width="0.5"/>
<g clip-path="url(#clip0_346_283)">
<path d="M277.265 151.634C278.141 150.367 278.448 148.605 277.938 146.955L277.477 145.445H280.276V117.495H249.918V145.445H266.243L268.024 151.232C268.53 152.88 269.723 154 271.08 154.302L271.917 157.302L278.922 157.303L277.266 151.635L277.265 151.634ZM274.719 136.532C273.223 137.178 272.45 139.142 272.995 140.915L274.074 144.403H250.796V118.535H279.398V144.403H277.151L274.718 136.532H274.719Z" fill="#1565C0"/>
<g clip-path="url(#clip1_346_283)">
<path d="M266.729 135.242L261.167 132.833L261.718 132.118L267.279 134.527L266.729 135.242Z" fill="#1565C0"/>
<path d="M272.404 136.613C274.01 135.476 275.028 133.877 275.028 132.093C275.028 129.895 273.489 127.912 271.095 126.799L273.777 123.318L273.356 123.136L274.017 122.273L272.283 121.522L271.62 122.383L271.177 122.191L264.585 130.756L265.16 131.006L264.343 132.066L265.792 132.694L266.609 131.632L267.184 131.882L269.957 128.281C271.656 129.094 272.747 130.518 272.747 132.093C272.747 134.586 270.042 136.614 266.718 136.614C264.493 136.614 261.861 136.614 261.861 136.614V138.325H275.534V136.614C275.534 136.614 273.51 136.614 272.405 136.614L272.404 136.613Z" fill="#1565C0"/>
<path d="M260.266 123.452V122.094H260.489L260.486 121.768H258.454L258.457 122.094H258.697V123.452H257.181V122.094H257.403L257.401 121.768H255.367L255.371 122.094H255.611V123.452H253.385V130.258H262.473V123.452H260.267H260.266ZM261.703 129.682H254.153V124.029H255.61V128.377C255.61 128.706 255.969 128.973 256.402 128.973C256.835 128.972 257.181 128.705 257.181 128.377V124.029H258.697V128.377C258.697 128.706 259.055 128.973 259.488 128.973C259.921 128.972 260.267 128.705 260.266 128.377V124.029H261.703V129.682V129.682Z" fill="#1565C0"/>
</g>
</g>
<path d="M339.862 102.774H324.556V105.495H339.862V102.774Z" fill="black"/>
<path d="M306.056 105.745H358.362V167.809H306.056V105.745Z" stroke="black" stroke-width="0.5"/>
<g clip-path="url(#clip2_346_283)">
<path d="M343.942 150.865C344.785 149.644 345.081 147.946 344.59 146.356L344.146 144.901H346.843V117.965H317.587V144.901H333.32L335.036 150.478C335.524 152.066 336.673 153.145 337.981 153.436L338.788 156.327L345.538 156.329L343.942 150.866L343.942 150.865ZM341.487 136.312C340.046 136.934 339.301 138.826 339.826 140.535L340.867 143.897H318.433V118.968H345.997V143.897H343.831L341.487 136.312H341.487Z" fill="#1565C0"/>
<path d="M344.473 131.01C338.008 138.666 327.526 138.666 321.061 131.01L330.56 119.751C331.777 121.195 333.753 121.195 334.97 119.751L344.473 131.01ZM337.734 128.723C338.768 127.881 339.033 126.207 338.328 124.978C337.616 123.753 336.2 123.437 335.167 124.277C334.131 125.123 333.868 126.795 334.577 128.02C335.285 129.246 336.698 129.559 337.734 128.723L337.734 128.723ZM335.281 130.306C335.235 130.15 335.176 130.001 335.072 129.873C335.072 129.873 333.227 127.567 332.771 127C332.801 126.314 332.874 124.538 332.874 124.538C332.898 123.9 332.479 123.354 331.938 123.325C331.399 123.293 330.938 123.786 330.914 124.428L330.797 127.384C330.784 127.7 330.88 128.011 331.063 128.238L331.905 129.293L329.375 131.271L329.511 129.008C329.446 128.135 328.795 127.49 328.061 127.565C328.061 127.565 325.655 127.761 324.783 127.848C324.23 127.906 323.818 128.483 323.868 129.138C323.914 129.792 324.404 130.28 324.955 130.225C325.564 130.161 326.987 130.103 327.565 130.047C327.565 130.047 327.066 131.771 327.169 132.622C327.234 133.18 327.369 133.741 327.656 134.24C328.544 135.776 330.317 136.169 331.611 135.116C332.075 134.741 334.38 132.874 334.814 132.521C335.424 132.023 335.614 131.069 335.281 130.306L335.281 130.306Z" fill="#1565C0"/>
</g>
<path d="M223 89H378.654V185.381H223V89Z" stroke="black" stroke-width="2"/>
<defs>
<filter id="filter0_f_346_283" x="0" y="0" width="509" height="470" filterUnits="userSpaceOnUse" color-interpolation-filters="sRGB">
<feFlood flood-opacity="0" result="BackgroundImageFix"/>
<feBlend mode="normal" in="SourceGraphic" in2="BackgroundImageFix" result="shape"/>
<feGaussianBlur stdDeviation="2" result="effect1_foregroundBlur_346_283"/>
</filter>
<clipPath id="clip0_346_283">
<rect width="33.766" height="40" fill="white" transform="translate(248 117.495)"/>
</clipPath>
<clipPath id="clip1_346_283">
<rect width="23.0179" height="17.2634" fill="white" transform="translate(253.115 121.331)"/>
</clipPath>
<clipPath id="clip2_346_283">
<rect width="33.766" height="40" fill="white" transform="translate(315.806 116.495)"/>
</clipPath>
</defs>
</svg>
